<?xml version="1.0" ?><svg height="500" id="svg2" version="1.1" width="500" xmlns="http://www.w3.org/2000/svg" xmlns:cc="http://creativecommons.org/ns#" xmlns:dc="http://purl.org/dc/elements/1.1/" xmlns:inkscape="http://www.inkscape.org/namespaces/inkscape" xmlns:rdf="http://www.w3.org/1999/02/22-rdf-syntax-ns#" xmlns:sodipodi="http://sodipodi.sourceforge.net/DTD/sodipodi-0.dtd" xmlns:svg="http://www.w3.org/2000/svg"><defs id="defs4"/><g id="layer1" transform="translate(0,-552.36218)"><rect height="500" id="rect3020" style="fill:#2a5b83;fill-opacity:1;stroke:none" width="500" x="0" y="552.36218"/><g id="layer1-9" transform="translate(-549.00515,80.294372)"/><g id="layer1-6" transform="translate(-575.71429,39.999999)"/><g id="layer1-2" transform="matrix(0.95200814,0,0,0.95245472,13.096549,39.137296)"/><path d="m 500,160 0,340 -339.32261,0 L 79.669052,418.99166 81.406343,202.16509 60.245628,181.00437 80.963726,85.281874 86.574222,74.699216 176.4375,164.5625 334,78.000002 l 84.51821,0.518211 z" id="path3790" style="fill:#000000;stroke:none;stroke-width:1px;stroke-linecap:butt;stroke-linejoin:miter;stroke-opacity:1;opacity:0.29999999999999999" transform="translate(0,552.36218)"/><path d="m 376.46875,60 c -0.49502,-0.0032 -1.00562,0.01835 -1.5,0.03125 -37.68754,0.98292 -152.16717,0.42168 -214.25,0.125 l 0,109.28125 -74.15625,0 0,-94.71875 C 71.546104,87.07908 60.3125,105.33623 60.3125,122 c 0,8.12652 -0.03432,38.39036 -0.0625,59 l 114.15625,0 -11.15625,12.84375 -103,0 C 60.154342,260.55085 60,346.07016 60,375.9375 60,406.68231 92.988352,440 123.71875,440 c 41.96209,0 188.89207,-0.1875 250.3125,-0.1875 33.27235,0 65.96875,-30.78132 65.96875,-64.90625 0,-51.70333 -0.0723,-121.68283 -0.125,-181.0625 l -103.0625,0 L 325.65625,181 439.875,181 c -0.017,-20.40861 -0.0625,-46.44908 -0.0625,-59.03125 0,-30.02304 -32.158,-61.7715 -63.34375,-61.96875 z M 348.9375,86.34375 c 15.85233,0.01 30.77817,0 47.875,0 5.69284,0 12.15625,6.30448 12.15625,12 l 0,48.9375 c 0,5.70944 -6.44948,12 -12.15625,12 -16.52089,0 -30.30358,-0.005 -47.90625,0 -5.7702,0.002 -12.46875,-6.22711 -12.46875,-12 0,-14.78186 0.008,-32.88391 0,-48.9375 -0.003,-5.77335 6.72936,-12.003 12.5,-12 z m -98.90625,67.1875 c 53.84255,0 97.5,43.37176 97.5,96.875 0,53.50323 -43.65745,96.875 -97.5,96.875 -53.84255,0 -97.46875,-43.37177 -97.46875,-96.875 0,-53.50324 43.6262,-96.875 97.46875,-96.875 z m 0.0625,10.8125 c -47.1235,0 -85.3125,38.23773 -85.3125,85.40625 0,47.16852 38.189,85.40625 85.3125,85.40625 47.1235,0 85.34375,-38.23773 85.34375,-85.40625 0,-47.16852 -38.22025,-85.40625 -85.34375,-85.40625 z m 0.8125,20.8125 c 35.1374,0 63.59375,28.50237 63.59375,63.65625 0,35.15388 -28.45635,63.65625 -63.59375,63.65625 -35.1374,0 -63.625,-28.50237 -63.625,-63.65625 0,-35.15388 28.4876,-63.65625 63.625,-63.65625 z" id="rect2989-1" style="fill:#ffffff;fill-opacity:1;stroke:none" transform="translate(0,552.36218)"/></g></svg>